<?xml version="1.0" standalone="no"?>
<!DOCTYPE svg PUBLIC "-//W3C//DTD SVG 20010904//EN"
 "http://www.w3.org/TR/2001/REC-SVG-20010904/DTD/svg10.dtd">
<svg version="1.0" xmlns="http://www.w3.org/2000/svg"
 width="100.000000pt" height="100.000000pt" viewBox="0 0 100.000000 100.000000"
 preserveAspectRatio="xMidYMid meet">
<metadata>
Created by potrace 1.11, written by Peter Selinger 2001-2013
</metadata>
<g transform="translate(0.000000,100.000000) scale(0.100000,-0.100000)"
fill="#000000" stroke="none">
<path d="M400 798 c-58 -49 -165 -142 -239 -207 -74 -64 -139 -119 -145 -123
-16 -11 12 -28 46 -28 31 0 62 -26 54 -46 -3 -7 -1 -16 5 -19 5 -4 8 -3 7 2
-1 4 1 18 6 30 6 18 11 20 29 14 12 -5 25 -9 30 -9 4 0 29 -3 55 -8 26 -4 50
-7 55 -6 4 1 7 -2 7 -6 0 -5 6 -9 13 -10 20 -1 41 -7 52 -13 6 -4 18 -5 28 -4
9 2 15 -1 11 -6 -3 -5 0 -9 5 -9 6 0 11 6 11 13 0 8 3 8 8 2 4 -6 16 -11 26
-10 13 0 20 -8 23 -26 4 -28 -15 -43 -42 -33 -12 5 -12 10 -3 27 6 12 7 19 3
15 -4 -4 -15 -3 -25 2 -10 5 -20 6 -24 3 -4 -4 -16 -8 -27 -10 -15 -2 -20 1
-15 12 3 9 -3 19 -14 25 -11 6 -20 8 -20 5 0 -9 33 -59 45 -67 5 -4 6 -8 1 -8
-5 0 -3 -7 4 -15 10 -13 15 -12 32 8 l19 22 -6 -22 c-4 -14 -2 -23 5 -23 6 0
8 5 5 10 -3 6 1 10 9 10 9 0 16 -4 16 -8 0 -5 12 -14 28 -21 15 -7 24 -9 20
-5 -4 4 -3 13 3 21 9 10 8 13 -1 13 -27 0 3 15 31 16 18 1 28 -3 26 -10 -2 -6
-13 -10 -23 -8 -18 2 -18 2 0 -9 15 -9 21 -9 24 -1 2 7 8 10 13 7 5 -4 6 1 2
10 -5 15 -3 15 15 4 15 -10 18 -16 9 -21 -7 -4 -7 -8 -2 -8 18 0 33 15 37 35
1 11 11 26 21 34 12 8 17 21 14 33 -3 11 -3 18 0 15 3 -3 16 -2 29 3 25 10 33
12 112 25 41 7 48 2 43 -28 -1 -5 3 -6 9 -2 6 3 8 10 6 14 -11 17 15 32 73 42
l64 12 -29 26 c-16 14 -58 51 -93 81 -36 30 -72 62 -81 70 -9 8 -32 29 -51 45
-94 82 -195 171 -199 175 -43 43 -38 45 -150 -52z m209 -425 c-4 -22 3 -25 15
-7 11 14 18 16 26 8 8 -8 7 -16 -6 -29 -10 -10 -19 -24 -20 -32 -4 -25 -11
-26 -33 -4 -12 12 -21 16 -21 9 0 -9 -4 -8 -10 2 -9 13 -10 13 -10 0 0 -13 -2
-13 -9 0 -6 8 -7 18 -5 22 3 4 -2 5 -10 2 -9 -3 -16 -2 -16 3 0 5 10 10 23 10
31 2 55 8 63 16 9 9 14 9 13 0z m-179 -53 c0 -6 -4 -9 -9 -6 -5 3 -14 -1 -21
-9 -17 -20 -25 -19 -27 3 -1 13 7 18 28 20 16 1 29 -3 29 -8z m100 6 c0 -11
-19 -15 -25 -6 -3 5 1 10 9 10 9 0 16 -2 16 -4z m-40 -46 c0 -5 -4 -10 -10
-10 -5 0 -10 5 -10 10 0 6 5 10 10 10 6 0 10 -4 10 -10z"/>
<path d="M626 354 c-4 -11 -10 -13 -19 -6 -14 11 -45 8 -59 -6 -6 -6 1 -9 19
-8 15 0 27 -4 26 -10 -1 -6 5 -11 13 -11 8 0 12 3 9 5 -3 3 5 16 17 29 12 13
17 23 11 23 -6 0 -14 -7 -17 -16z"/>
<path d="M363 356 c0 -15 22 -15 34 0 4 5 4 6 -1 2 -5 -4 -14 -3 -21 2 -8 7
-12 5 -12 -4z"/>
<path d="M453 328 c-1 -11 3 -18 9 -16 15 5 19 35 4 35 -7 0 -13 -9 -13 -19z"/>
<path d="M515 261 c3 -6 -3 -14 -12 -20 -10 -6 -13 -11 -7 -11 12 0 34 20 34
32 0 4 -5 8 -11 8 -5 0 -8 -4 -4 -9z"/>
<path d="M574 262 c5 -8 -1 -12 -16 -13 -18 -1 -19 -2 -4 -6 23 -6 43 12 25
22 -8 5 -10 4 -5 -3z"/>
<path d="M388 253 c6 -2 9 -10 5 -16 -3 -7 -3 -9 2 -5 4 4 15 2 23 -5 13 -11
14 -9 1 11 -8 12 -21 22 -29 21 -10 0 -11 -2 -2 -6z"/>
<path d="M470 206 c0 -2 7 -7 16 -10 8 -3 12 -2 9 4 -6 10 -25 14 -25 6z"/>
</g>
</svg>
